<svg
  viewBox="0 0 24 24"
  id="icon-log-out"
  xmlns="http://www.w3.org/2000/svg"
>
  <path
    fillRule="evenodd"
    clipRule="evenodd"
    d="M17.375 8.727a.751.751 0 0 1 1.06.003l2.7 2.705a.8.8 0 0 1 0 1.13l-2.7 2.705a.751.751 0 1 1-1.062-1.06l1.456-1.46H9.45a.75.75 0 1 1 0-1.5h9.38l-1.456-1.46a.75.75 0 0 1 .002-1.063z"
  />
  <path
    fillRule="evenodd"
    clipRule="evenodd"
    d="M11.98 3.792c-4.516 0-8.184 3.671-8.184 8.208 0 4.537 3.668 8.208 8.184 8.208a8.155 8.155 0 0 0 6.239-2.897c.266-.314.729-.399 1.067-.163.339.237.423.706.16 1.025A9.654 9.654 0 0 1 11.98 21.7c-5.35 0-9.68-4.347-9.68-9.7 0-5.353 4.33-9.7 9.68-9.7a9.652 9.652 0 0 1 7.465 3.526c.263.319.179.788-.16 1.025-.338.236-.8.151-1.067-.163a8.152 8.152 0 0 0-6.238-2.896z"
  />
</svg>